# MagicaVoxel @ Ephtracy

# group
o 

# material
mtllib untitled.mtl
usemtl palette

# normals
vn -1 0 0
vn 1 0 0
vn 0 0 1
vn 0 0 -1
vn 0 -1 0
vn 0 1 0

# texcoords
vt 0.970703 0.5
vt 0.974609 0.5
vt 0.978516 0.5
vt 0.982422 0.5
vt 0.986328 0.5

# verts
v -0.8 6.1 1
v -0.8 6.1 -1
v -0.8 6.5 1
v -0.8 6.5 -1
v -0.8 6.6 1
v -0.8 6.6 -1
v -0.8 6.8 0.5
v -0.8 6.8 -1
v -0.8 6.9 0.5
v -0.8 6.9 -1
v -0.8 7 0.5
v -0.8 7 -1
v -0.8 7.1 0.5
v -0.8 7.1 -1
v -0.8 7.2 0.5
v -0.8 7.2 -1
v -0.8 7.3 0.5
v -0.8 7.3 -1
v -0.8 7.4 0.5
v -0.8 7.4 -1
v -0.8 7.5 0.5
v -0.8 7.5 -1
v -0.8 7.7 -0.8
v -0.8 7.7 -1
v -0.8 7.9 -0.0999997
v -0.8 7.9 -0.8
v -0.8 8.2 1
v -0.8 8.2 -0.0999997
v -0.7 6.5 0.9
v -0.7 6.5 -1
v -0.7 6.6 0.9
v -0.7 6.6 -1
v -0.7 6.8 0.5
v -0.7 6.8 -1
v -0.7 6.9 0.5
v -0.7 6.9 -1
v -0.7 7 0.5
v -0.7 7 -1
v -0.7 7.1 0.5
v -0.7 7.1 -1
v -0.7 7.2 0.5
v -0.7 7.2 -1
v -0.7 7.3 0.5
v -0.7 7.3 -1
v -0.7 7.4 0.5
v -0.7 7.4 -1
v -0.7 7.5 0.5
v -0.7 7.5 -1
v 0.1 6.2 1
v 0.1 6.2 0.9
v 0.1 6.3 0.9
v 0.1 6.4 1
v 0.1 6.4 0.9
v 0.1 6.6 -0.9
v 0.1 6.6 -1
v 0.1 6.8 -0.9
v 0.1 6.8 -1
v 0.5 6.2 1
v 0.5 6.2 0.9
v 0.5 6.4 1
v 0.5 6.4 0.9
v 0.5 6.5 -0.9
v 0.5 6.5 -1
v 0.5 7.2 -0.9
v 0.5 7.2 -1
v 0.6 7 1
v 0.6 7 0.9
v 0.6 8 1
v 0.6 8 0.9
v 0.7 6.2 1
v 0.7 6.2 0.9
v 0.7 6.3 0.9
v 0.7 6.4 1
v 0.7 6.4 0.9
v -0.7 6.2 1
v -0.7 6.2 0.9
v -0.7 6.3 0.9
v -0.7 6.4 1
v -0.7 6.4 0.9
v -0.6 7 1
v -0.6 7 0.9
v -0.6 8 1
v -0.6 8 0.9
v -0.5 6.5 -0.9
v -0.5 6.5 -1
v -0.5 7.2 -0.9
v -0.5 7.2 -1
v 0.2 6.2 1
v 0.2 6.2 0.9
v 0.2 6.4 1
v 0.2 6.4 0.9
v 0.4 6.6 -0.9
v 0.4 6.6 -1
v 0.4 6.8 -0.9
v 0.4 6.8 -1
v 0.6 6.2 1
v 0.6 6.2 0.9
v 0.6 6.3 0.9
v 0.6 6.4 1
v 0.6 6.4 0.9
v 0.7 6.5 0.9
v 0.7 6.5 -1
v 0.7 6.6 0.9
v 0.7 6.6 -1
v 0.7 6.8 0.5
v 0.7 6.8 -1
v 0.7 6.9 0.5
v 0.7 6.9 -1
v 0.7 7 0.5
v 0.7 7 -0.9
v 0.7 7 -1
v 0.7 7.1 0.5
v 0.7 7.1 -0.9
v 0.7 7.1 -1
v 0.7 7.2 0.5
v 0.7 7.2 -0.9
v 0.7 7.2 -1
v 0.7 7.3 0.5
v 0.7 7.3 -0.9
v 0.7 7.3 -1
v 0.7 7.4 0.5
v 0.7 7.4 -0.9
v 0.7 7.4 -1
v 0.7 7.5 0.5
v 0.7 7.5 -0.9
v 0.7 7.5 -1
v 0.8 6.1 1
v 0.8 6.1 -1
v 0.8 6.5 1
v 0.8 6.5 -1
v 0.8 6.6 1
v 0.8 6.6 -1
v 0.8 6.8 0.5
v 0.8 6.8 -1
v 0.8 6.9 0.5
v 0.8 6.9 -1
v 0.8 7 0.5
v 0.8 7 -1
v 0.8 7.1 0.5
v 0.8 7.1 -1
v 0.8 7.2 0.5
v 0.8 7.2 -1
v 0.8 7.3 0.5
v 0.8 7.3 -1
v 0.8 7.4 0.5
v 0.8 7.4 -1
v 0.8 7.5 0.5
v 0.8 7.5 -1
v 0.8 7.7 -0.8
v 0.8 7.7 -1
v 0.8 7.9 -0.0999997
v 0.8 7.9 -0.8
v 0.8 8.2 1
v 0.8 8.2 -0.0999997
v -0.8 6.1 1
v -0.8 6.5 1
v -0.8 6.6 1
v -0.8 8.2 1
v -0.7 6.2 1
v -0.7 6.4 1
v -0.7 6.7 1
v -0.7 6.8 1
v -0.6 6.7 1
v -0.6 6.8 1
v -0.6 7 1
v -0.6 8 1
v -0.5 6.7 1
v -0.5 6.8 1
v -0.4 6.7 1
v -0.4 6.8 1
v -0.3 6.7 1
v -0.3 6.8 1
v 0.1 6.2 1
v 0.1 6.4 1
v 0.2 6.2 1
v 0.2 6.4 1
v 0.4 6.7 1
v 0.4 6.8 1
v 0.5 6.2 1
v 0.5 6.4 1
v 0.5 6.7 1
v 0.5 6.8 1
v 0.6 6.2 1
v 0.6 6.4 1
v 0.6 6.7 1
v 0.6 6.8 1
v 0.6 7 1
v 0.6 8 1
v 0.7 6.2 1
v 0.7 6.4 1
v 0.7 6.7 1
v 0.7 6.8 1
v 0.8 6.1 1
v 0.8 6.5 1
v 0.8 6.6 1
v 0.8 8.2 1
v -0.7 6.2 0.9
v -0.7 6.3 0.9
v -0.7 6.4 0.9
v -0.7 6.5 0.9
v -0.7 6.6 0.9
v -0.6 6.3 0.9
v -0.6 6.4 0.9
v -0.6 6.5 0.9
v -0.6 6.6 0.9
v -0.6 7 0.9
v -0.6 8 0.9
v -0.5 6.2 0.9
v -0.5 6.3 0.9
v -0.4 6.5 0.9
v -0.4 6.6 0.9
v -0.0999996 6.2 0.9
v -0.0999996 6.3 0.9
v 4.17233e-07 6.3 0.9
v 4.17233e-07 6.4 0.9
v 0.1 6.2 0.9
v 0.1 6.3 0.9
v 0.1 6.4 0.9
v 0.2 6.2 0.9
v 0.2 6.4 0.9
v 0.4 6.5 0.9
v 0.4 6.6 0.9
v 0.5 6.2 0.9
v 0.5 6.4 0.9
v 0.6 6.2 0.9
v 0.6 6.3 0.9
v 0.6 6.4 0.9
v 0.6 6.5 0.9
v 0.6 6.6 0.9
v 0.6 7 0.9
v 0.6 8 0.9
v 0.7 6.2 0.9
v 0.7 6.3 0.9
v 0.7 6.4 0.9
v 0.7 6.5 0.9
v 0.7 6.6 0.9
v -0.8 6.8 0.5
v -0.8 6.9 0.5
v -0.8 7 0.5
v -0.8 7.1 0.5
v -0.8 7.2 0.5
v -0.8 7.3 0.5
v -0.8 7.4 0.5
v -0.8 7.5 0.5
v -0.7 6.8 0.5
v -0.7 6.9 0.5
v -0.7 7 0.5
v -0.7 7.1 0.5
v -0.7 7.2 0.5
v -0.7 7.3 0.5
v -0.7 7.4 0.5
v -0.7 7.5 0.5
v 0.7 6.8 0.5
v 0.7 6.9 0.5
v 0.7 7 0.5
v 0.7 7.1 0.5
v 0.7 7.2 0.5
v 0.7 7.3 0.5
v 0.7 7.4 0.5
v 0.7 7.5 0.5
v 0.8 6.8 0.5
v 0.8 6.9 0.5
v 0.8 7 0.5
v 0.8 7.1 0.5
v 0.8 7.2 0.5
v 0.8 7.3 0.5
v 0.8 7.4 0.5
v 0.8 7.5 0.5
v -0.8 7.9 -0.0999997
v -0.8 8.2 -0.0999997
v 0.8 7.9 -0.0999997
v 0.8 8.2 -0.0999997
v -0.8 7.7 -0.8
v -0.8 7.9 -0.8
v 0.8 7.7 -0.8
v 0.8 7.9 -0.8
v -0.5 6.5 -0.9
v -0.5 7.2 -0.9
v -0.4 6.6 -0.9
v -0.4 6.8 -0.9
v -0.4 6.9 -0.9
v -0.4 7 -0.9
v -0.3 6.9 -0.9
v -0.3 7 -0.9
v -0.3 7.1 -0.9
v -0.2 6.9 -0.9
v -0.2 7 -0.9
v -0.2 7.1 -0.9
v -0.0999996 6.9 -0.9
v -0.0999996 7 -0.9
v -0.0999996 7.1 -0.9
v 4.17233e-07 6.6 -0.9
v 4.17233e-07 6.8 -0.9
v 4.17233e-07 7 -0.9
v 4.17233e-07 7.1 -0.9
v 0.1 6.6 -0.9
v 0.1 6.8 -0.9
v 0.1 7.1 -0.9
v 0.4 6.6 -0.9
v 0.4 6.8 -0.9
v 0.4 7.1 -0.9
v 0.5 6.5 -0.9
v 0.5 7.2 -0.9
v -0.8 6.1 -1
v -0.8 6.5 -1
v -0.8 6.6 -1
v -0.8 6.8 -1
v -0.8 6.9 -1
v -0.8 7 -1
v -0.8 7.1 -1
v -0.8 7.2 -1
v -0.8 7.3 -1
v -0.8 7.4 -1
v -0.8 7.5 -1
v -0.8 7.7 -1
v -0.7 6.5 -1
v -0.7 6.6 -1
v -0.7 6.8 -1
v -0.7 6.9 -1
v -0.7 7 -1
v -0.7 7.1 -1
v -0.7 7.2 -1
v -0.7 7.3 -1
v -0.7 7.4 -1
v -0.7 7.5 -1
v -0.5 6.5 -1
v -0.5 7.2 -1
v 0.1 6.6 -1
v 0.1 6.8 -1
v 0.4 6.6 -1
v 0.4 6.8 -1
v 0.5 6.5 -1
v 0.5 7.2 -1
v 0.7 6.5 -1
v 0.7 6.6 -1
v 0.7 6.8 -1
v 0.7 6.9 -1
v 0.7 7 -1
v 0.7 7.1 -1
v 0.7 7.2 -1
v 0.7 7.3 -1
v 0.7 7.4 -1
v 0.7 7.5 -1
v 0.8 6.1 -1
v 0.8 6.5 -1
v 0.8 6.6 -1
v 0.8 6.8 -1
v 0.8 6.9 -1
v 0.8 7 -1
v 0.8 7.1 -1
v 0.8 7.2 -1
v 0.8 7.3 -1
v 0.8 7.4 -1
v 0.8 7.5 -1
v 0.8 7.7 -1
v -0.8 6.1 1
v 0.8 6.1 1
v -0.8 6.1 -1
v 0.8 6.1 -1
v -0.7 6.4 1
v 0.1 6.4 1
v 0.2 6.4 1
v 0.5 6.4 1
v 0.6 6.4 1
v 0.7 6.4 1
v -0.7 6.4 0.9
v -0.6 6.4 0.9
v 4.17233e-07 6.4 0.9
v 0.1 6.4 0.9
v 0.2 6.4 0.9
v 0.5 6.4 0.9
v 0.6 6.4 0.9
v 0.7 6.4 0.9
v -0.8 6.6 1
v 0.8 6.6 1
v -0.7 6.6 0.9
v -0.6 6.6 0.9
v -0.4 6.6 0.9
v 0.4 6.6 0.9
v 0.6 6.6 0.9
v 0.7 6.6 0.9
v 0.1 6.6 -0.9
v 0.4 6.6 -0.9
v -0.8 6.6 -1
v -0.7 6.6 -1
v 0.1 6.6 -1
v 0.4 6.6 -1
v 0.7 6.6 -1
v 0.8 6.6 -1
v -0.8 6.9 0.5
v -0.7 6.9 0.5
v 0.7 6.9 0.5
v 0.8 6.9 0.5
v -0.8 6.9 -1
v -0.7 6.9 -1
v 0.7 6.9 -1
v 0.8 6.9 -1
v -0.8 7.1 0.5
v -0.7 7.1 0.5
v 0.7 7.1 0.5
v 0.8 7.1 0.5
v 0.7 7.1 -0.9
v -0.8 7.1 -1
v -0.7 7.1 -1
v 0.7 7.1 -1
v 0.8 7.1 -1
v -0.5 7.2 -0.9
v 0.5 7.2 -0.9
v -0.5 7.2 -1
v 0.5 7.2 -1
v -0.8 7.3 0.5
v -0.7 7.3 0.5
v 0.7 7.3 0.5
v 0.8 7.3 0.5
v 0.7 7.3 -0.9
v -0.8 7.3 -1
v -0.7 7.3 -1
v 0.7 7.3 -1
v 0.8 7.3 -1
v -0.8 7.5 0.5
v -0.7 7.5 0.5
v 0.7 7.5 0.5
v 0.8 7.5 0.5
v 0.7 7.5 -0.9
v -0.8 7.5 -1
v -0.7 7.5 -1
v 0.7 7.5 -1
v 0.8 7.5 -1
v -0.6 8 1
v 0.6 8 1
v -0.6 8 0.9
v 0.6 8 0.9
v -0.7 6.2 1
v 0.1 6.2 1
v 0.2 6.2 1
v 0.5 6.2 1
v 0.6 6.2 1
v 0.7 6.2 1
v -0.7 6.2 0.9
v -0.5 6.2 0.9
v -0.0999996 6.2 0.9
v 0.1 6.2 0.9
v 0.2 6.2 0.9
v 0.5 6.2 0.9
v 0.6 6.2 0.9
v 0.7 6.2 0.9
v -0.8 6.5 1
v 0.8 6.5 1
v -0.7 6.5 0.9
v -0.6 6.5 0.9
v -0.4 6.5 0.9
v 0.4 6.5 0.9
v 0.6 6.5 0.9
v 0.7 6.5 0.9
v -0.5 6.5 -0.9
v 0.5 6.5 -0.9
v -0.8 6.5 -1
v -0.7 6.5 -1
v -0.5 6.5 -1
v 0.5 6.5 -1
v 0.7 6.5 -1
v 0.8 6.5 -1
v -0.8 6.8 0.5
v -0.7 6.8 0.5
v 0.7 6.8 0.5
v 0.8 6.8 0.5
v 0.1 6.8 -0.9
v 0.4 6.8 -0.9
v -0.8 6.8 -1
v -0.7 6.8 -1
v 0.1 6.8 -1
v 0.4 6.8 -1
v 0.7 6.8 -1
v 0.8 6.8 -1
v -0.6 7 1
v 0.6 7 1
v -0.6 7 0.9
v 0.6 7 0.9
v -0.8 7 0.5
v -0.7 7 0.5
v 0.7 7 0.5
v 0.8 7 0.5
v 0.7 7 -0.9
v -0.8 7 -1
v -0.7 7 -1
v 0.7 7 -1
v 0.8 7 -1
v -0.8 7.2 0.5
v -0.7 7.2 0.5
v 0.7 7.2 0.5
v 0.8 7.2 0.5
v 0.7 7.2 -0.9
v -0.8 7.2 -1
v -0.7 7.2 -1
v 0.7 7.2 -1
v 0.8 7.2 -1
v -0.8 7.4 0.5
v -0.7 7.4 0.5
v 0.7 7.4 0.5
v 0.8 7.4 0.5
v 0.7 7.4 -0.9
v -0.8 7.4 -1
v -0.7 7.4 -1
v 0.7 7.4 -1
v 0.8 7.4 -1
v -0.8 7.7 -0.8
v 0.8 7.7 -0.8
v -0.8 7.7 -1
v 0.8 7.7 -1
v -0.8 7.9 -0.0999997
v 0.8 7.9 -0.0999997
v -0.8 7.9 -0.8
v 0.8 7.9 -0.8
v -0.8 8.2 1
v 0.8 8.2 1
v -0.8 8.2 -0.0999997
v 0.8 8.2 -0.0999997

# faces
f 3/1/1 2/1/1 1/1/1
f 4/1/1 2/1/1 3/1/1
f 7/1/1 6/1/1 5/1/1
f 8/1/1 6/1/1 7/1/1
f 9/1/1 7/1/1 5/1/1
f 11/1/1 9/1/1 5/1/1
f 11/1/1 10/1/1 9/1/1
f 12/1/1 10/1/1 11/1/1
f 13/1/1 11/1/1 5/1/1
f 15/1/1 13/1/1 5/1/1
f 15/1/1 14/1/1 13/1/1
f 16/1/1 14/1/1 15/1/1
f 17/1/1 15/1/1 5/1/1
f 19/1/1 17/1/1 5/1/1
f 19/1/1 18/1/1 17/1/1
f 20/1/1 18/1/1 19/1/1
f 21/1/1 19/1/1 5/1/1
f 23/1/1 22/1/1 21/1/1
f 24/1/1 22/1/1 23/1/1
f 25/1/1 23/1/1 21/1/1
f 26/1/1 23/1/1 25/1/1
f 27/1/1 21/1/1 5/1/1
f 27/1/1 25/1/1 21/1/1
f 28/1/1 25/1/1 27/1/1
f 31/1/1 30/1/1 29/1/1
f 32/1/1 30/1/1 31/1/1
f 35/1/1 34/1/1 33/1/1
f 36/1/1 34/1/1 35/1/1
f 39/1/1 38/1/1 37/1/1
f 40/1/1 38/1/1 39/1/1
f 43/1/1 42/1/1 41/1/1
f 44/1/1 42/1/1 43/1/1
f 47/1/1 46/1/1 45/1/1
f 48/1/1 46/1/1 47/1/1
f 51/1/1 50/1/1 49/1/1
f 52/1/1 51/1/1 49/1/1
f 53/1/1 51/1/1 52/1/1
f 56/3/1 55/3/1 54/3/1
f 57/3/1 55/3/1 56/3/1
f 60/1/1 59/1/1 58/1/1
f 61/1/1 59/1/1 60/1/1
f 64/1/1 63/1/1 62/1/1
f 65/1/1 63/1/1 64/1/1
f 68/1/1 67/1/1 66/1/1
f 69/1/1 67/1/1 68/1/1
f 72/1/1 71/1/1 70/1/1
f 73/1/1 72/1/1 70/1/1
f 74/1/1 72/1/1 73/1/1
f 75/1/2 76/1/2 77/1/2
f 75/1/2 77/1/2 78/1/2
f 78/1/2 77/1/2 79/1/2
f 80/1/2 81/1/2 82/1/2
f 82/1/2 81/1/2 83/1/2
f 84/1/2 85/1/2 86/1/2
f 86/1/2 85/1/2 87/1/2
f 88/1/2 89/1/2 90/1/2
f 90/1/2 89/1/2 91/1/2
f 92/3/2 93/3/2 94/3/2
f 94/3/2 93/3/2 95/3/2
f 96/1/2 97/1/2 98/1/2
f 96/1/2 98/1/2 99/1/2
f 99/1/2 98/1/2 100/1/2
f 101/1/2 102/1/2 103/1/2
f 103/1/2 102/1/2 104/1/2
f 105/1/2 106/1/2 107/1/2
f 107/1/2 106/1/2 108/1/2
f 109/4/2 110/4/2 112/4/2
f 110/1/2 111/1/2 113/1/2
f 112/4/2 110/4/2 113/4/2
f 113/1/2 111/1/2 114/1/2
f 115/4/2 116/4/2 118/4/2
f 116/1/2 117/1/2 119/1/2
f 118/4/2 116/4/2 119/4/2
f 119/1/2 117/1/2 120/1/2
f 121/4/2 122/4/2 124/4/2
f 122/1/2 123/1/2 125/1/2
f 124/4/2 122/4/2 125/4/2
f 125/1/2 123/1/2 126/1/2
f 127/1/2 128/1/2 129/1/2
f 129/1/2 128/1/2 130/1/2
f 131/1/2 132/1/2 133/1/2
f 133/1/2 132/1/2 134/1/2
f 131/1/2 133/1/2 135/1/2
f 131/1/2 135/1/2 137/1/2
f 135/1/2 136/1/2 137/1/2
f 137/1/2 136/1/2 138/1/2
f 131/1/2 137/1/2 139/1/2
f 131/1/2 139/1/2 141/1/2
f 139/1/2 140/1/2 141/1/2
f 141/1/2 140/1/2 142/1/2
f 131/1/2 141/1/2 143/1/2
f 131/1/2 143/1/2 145/1/2
f 143/1/2 144/1/2 145/1/2
f 145/1/2 144/1/2 146/1/2
f 131/1/2 145/1/2 147/1/2
f 147/1/2 148/1/2 149/1/2
f 149/1/2 148/1/2 150/1/2
f 147/1/2 149/1/2 151/1/2
f 151/1/2 149/1/2 152/1/2
f 131/1/2 147/1/2 153/1/2
f 147/1/2 151/1/2 153/1/2
f 153/1/2 151/1/2 154/1/2
f 159/1/3 156/1/3 155/1/3
f 160/1/3 156/1/3 159/1/3
f 161/1/3 158/1/3 157/1/3
f 162/1/3 158/1/3 161/1/3
f 163/1/3 161/1/3 157/1/3
f 163/2/3 162/2/3 161/2/3
f 164/1/3 158/1/3 162/1/3
f 164/2/3 162/2/3 163/2/3
f 165/1/3 158/1/3 164/1/3
f 166/1/3 158/1/3 165/1/3
f 167/1/3 163/1/3 157/1/3
f 167/3/3 164/3/3 163/3/3
f 168/1/3 165/1/3 164/1/3
f 168/3/3 164/3/3 167/3/3
f 169/1/3 167/1/3 157/1/3
f 169/2/3 168/2/3 167/2/3
f 170/1/3 165/1/3 168/1/3
f 170/2/3 168/2/3 169/2/3
f 171/1/3 169/1/3 157/1/3
f 171/3/3 170/3/3 169/3/3
f 172/1/3 165/1/3 170/1/3
f 172/3/3 170/3/3 171/3/3
f 173/1/3 159/1/3 155/1/3
f 174/1/3 156/1/3 160/1/3
f 175/1/3 173/1/3 155/1/3
f 175/1/3 174/1/3 173/1/3
f 176/1/3 156/1/3 174/1/3
f 176/1/3 174/1/3 175/1/3
f 177/1/3 171/1/3 157/1/3
f 177/1/3 172/1/3 171/1/3
f 178/1/3 165/1/3 172/1/3
f 178/1/3 172/1/3 177/1/3
f 179/1/3 175/1/3 155/1/3
f 180/1/3 156/1/3 176/1/3
f 181/1/3 177/1/3 157/1/3
f 181/2/3 178/2/3 177/2/3
f 182/1/3 165/1/3 178/1/3
f 182/2/3 178/2/3 181/2/3
f 183/1/3 180/1/3 179/1/3
f 183/1/3 179/1/3 155/1/3
f 184/1/3 156/1/3 180/1/3
f 184/1/3 180/1/3 183/1/3
f 185/1/3 181/1/3 157/1/3
f 185/1/3 182/1/3 181/1/3
f 186/1/3 165/1/3 182/1/3
f 186/1/3 182/1/3 185/1/3
f 187/1/3 165/1/3 186/1/3
f 188/1/3 158/1/3 166/1/3
f 189/1/3 183/1/3 155/1/3
f 190/1/3 156/1/3 184/1/3
f 191/1/3 185/1/3 157/1/3
f 191/3/3 186/3/3 185/3/3
f 192/1/3 187/1/3 186/1/3
f 192/3/3 186/3/3 191/3/3
f 192/1/3 188/1/3 187/1/3
f 193/1/3 189/1/3 155/1/3
f 193/1/3 190/1/3 189/1/3
f 194/1/3 156/1/3 190/1/3
f 194/1/3 190/1/3 193/1/3
f 195/1/3 192/1/3 191/1/3
f 195/1/3 191/1/3 157/1/3
f 196/1/3 188/1/3 192/1/3
f 196/1/3 192/1/3 195/1/3
f 196/1/3 158/1/3 188/1/3
f 202/5/3 198/5/3 197/5/3
f 202/1/3 199/1/3 198/1/3
f 203/1/3 199/1/3 202/1/3
f 204/1/3 201/1/3 200/1/3
f 205/1/3 201/1/3 204/1/3
f 208/5/3 203/5/3 202/5/3
f 208/5/3 202/5/3 197/5/3
f 209/5/3 203/5/3 208/5/3
f 210/3/3 205/3/3 204/3/3
f 211/3/3 205/3/3 210/3/3
f 212/1/3 209/1/3 208/1/3
f 213/5/3 203/5/3 209/5/3
f 213/1/3 209/1/3 212/1/3
f 214/5/3 213/5/3 212/5/3
f 214/5/3 203/5/3 213/5/3
f 215/5/3 203/5/3 214/5/3
f 216/5/3 214/5/3 212/5/3
f 217/1/3 215/1/3 214/1/3
f 217/5/3 214/5/3 216/5/3
f 218/1/3 215/1/3 217/1/3
f 221/1/3 211/1/3 210/1/3
f 222/1/3 211/1/3 221/1/3
f 223/5/3 220/5/3 219/5/3
f 224/5/3 220/5/3 223/5/3
f 228/3/3 222/3/3 221/3/3
f 229/3/3 222/3/3 228/3/3
f 230/4/3 207/4/3 206/4/3
f 231/4/3 207/4/3 230/4/3
f 232/3/3 226/3/3 225/3/3
f 233/5/3 227/5/3 226/5/3
f 233/3/3 226/3/3 232/3/3
f 234/5/3 227/5/3 233/5/3
f 235/1/3 229/1/3 228/1/3
f 236/1/3 229/1/3 235/1/3
f 237/1/4 238/1/4 245/1/4
f 245/1/4 238/1/4 246/1/4
f 239/1/4 240/1/4 247/1/4
f 247/1/4 240/1/4 248/1/4
f 241/1/4 242/1/4 249/1/4
f 249/1/4 242/1/4 250/1/4
f 243/1/4 244/1/4 251/1/4
f 251/1/4 244/1/4 252/1/4
f 253/1/4 254/1/4 261/1/4
f 261/1/4 254/1/4 262/1/4
f 255/1/4 256/1/4 263/1/4
f 263/1/4 256/1/4 264/1/4
f 257/1/4 258/1/4 265/1/4
f 265/1/4 258/1/4 266/1/4
f 259/1/4 260/1/4 267/1/4
f 267/1/4 260/1/4 268/1/4
f 269/1/4 270/1/4 271/1/4
f 271/1/4 270/1/4 272/1/4
f 273/1/4 274/1/4 275/1/4
f 275/1/4 274/1/4 276/1/4
f 277/1/4 278/1/4 279/1/4
f 279/1/4 278/1/4 280/1/4
f 280/1/4 278/1/4 281/1/4
f 281/1/4 278/1/4 282/1/4
f 280/1/4 281/1/4 283/1/4
f 281/3/4 282/3/4 283/3/4
f 282/1/4 278/1/4 284/1/4
f 283/3/4 282/3/4 284/3/4
f 284/1/4 278/1/4 285/1/4
f 280/1/4 283/1/4 286/1/4
f 283/1/4 284/1/4 286/1/4
f 284/3/4 285/3/4 287/3/4
f 286/1/4 284/1/4 287/1/4
f 285/1/4 278/1/4 288/1/4
f 287/3/4 285/3/4 288/3/4
f 286/3/4 287/3/4 289/3/4
f 280/1/4 286/1/4 289/1/4
f 287/1/4 288/1/4 290/1/4
f 289/3/4 287/3/4 290/3/4
f 288/1/4 278/1/4 291/1/4
f 290/1/4 288/1/4 291/1/4
f 277/1/4 279/1/4 292/1/4
f 279/3/4 280/3/4 292/3/4
f 289/1/4 290/1/4 293/1/4
f 292/3/4 280/3/4 293/3/4
f 280/1/4 289/1/4 293/1/4
f 290/3/4 291/3/4 294/3/4
f 293/1/4 290/1/4 294/1/4
f 291/1/4 278/1/4 295/1/4
f 294/3/4 291/3/4 295/3/4
f 293/1/4 294/1/4 296/1/4
f 292/1/4 293/1/4 296/1/4
f 294/1/4 295/1/4 296/1/4
f 277/1/4 292/1/4 296/1/4
f 296/1/4 295/1/4 297/1/4
f 295/1/4 278/1/4 298/1/4
f 297/1/4 295/1/4 298/1/4
f 277/1/4 296/1/4 299/1/4
f 297/3/4 298/3/4 300/3/4
f 298/1/4 278/1/4 301/1/4
f 300/3/4 298/3/4 301/3/4
f 299/1/4 300/1/4 302/1/4
f 277/1/4 299/1/4 302/1/4
f 300/1/4 301/1/4 302/1/4
f 301/1/4 278/1/4 303/1/4
f 302/1/4 301/1/4 303/1/4
f 304/1/4 305/1/4 316/1/4
f 306/1/4 307/1/4 317/1/4
f 317/1/4 307/1/4 318/1/4
f 308/1/4 309/1/4 319/1/4
f 319/1/4 309/1/4 320/1/4
f 310/1/4 311/1/4 321/1/4
f 321/1/4 311/1/4 322/1/4
f 312/1/4 313/1/4 323/1/4
f 323/1/4 313/1/4 324/1/4
f 314/1/4 315/1/4 325/1/4
f 323/1/4 324/1/4 326/1/4
f 324/1/4 325/1/4 326/1/4
f 304/1/4 316/1/4 326/1/4
f 317/1/4 318/1/4 326/1/4
f 322/1/4 323/1/4 326/1/4
f 319/1/4 320/1/4 326/1/4
f 320/1/4 321/1/4 326/1/4
f 321/1/4 322/1/4 326/1/4
f 318/1/4 319/1/4 326/1/4
f 316/1/4 317/1/4 326/1/4
f 326/1/4 325/1/4 327/1/4
f 328/3/4 329/3/4 330/3/4
f 330/3/4 329/3/4 331/3/4
f 304/1/4 326/1/4 332/1/4
f 327/1/4 325/1/4 333/1/4
f 304/1/4 332/1/4 334/1/4
f 332/1/4 333/1/4 334/1/4
f 334/1/4 333/1/4 335/1/4
f 335/1/4 333/1/4 336/1/4
f 336/1/4 333/1/4 337/1/4
f 337/1/4 333/1/4 338/1/4
f 338/1/4 333/1/4 339/1/4
f 333/1/4 325/1/4 340/1/4
f 339/1/4 333/1/4 340/1/4
f 340/1/4 325/1/4 341/1/4
f 341/1/4 325/1/4 342/1/4
f 325/1/4 315/1/4 343/1/4
f 342/1/4 325/1/4 343/1/4
f 304/1/4 334/1/4 344/1/4
f 344/1/4 334/1/4 345/1/4
f 335/1/4 336/1/4 346/1/4
f 346/1/4 336/1/4 347/1/4
f 337/1/4 338/1/4 348/1/4
f 348/1/4 338/1/4 349/1/4
f 339/1/4 340/1/4 350/1/4
f 350/1/4 340/1/4 351/1/4
f 341/1/4 342/1/4 352/1/4
f 352/1/4 342/1/4 353/1/4
f 343/1/4 315/1/4 354/1/4
f 354/1/4 315/1/4 355/1/4
f 358/1/5 357/1/5 356/1/5
f 359/1/5 357/1/5 358/1/5
f 366/1/5 361/1/5 360/1/5
f 367/1/5 361/1/5 366/1/5
f 368/1/5 361/1/5 367/1/5
f 369/1/5 361/1/5 368/1/5
f 370/1/5 363/1/5 362/1/5
f 371/1/5 363/1/5 370/1/5
f 372/1/5 365/1/5 364/1/5
f 373/1/5 365/1/5 372/1/5
f 376/1/5 375/1/5 374/1/5
f 377/1/5 375/1/5 376/1/5
f 378/1/5 375/1/5 377/1/5
f 379/1/5 375/1/5 378/1/5
f 380/1/5 375/1/5 379/1/5
f 381/1/5 375/1/5 380/1/5
f 384/1/5 376/1/5 374/1/5
f 385/1/5 376/1/5 384/1/5
f 386/3/5 383/3/5 382/3/5
f 387/3/5 383/3/5 386/3/5
f 388/1/5 375/1/5 381/1/5
f 389/1/5 375/1/5 388/1/5
f 394/1/5 391/1/5 390/1/5
f 395/1/5 391/1/5 394/1/5
f 396/1/5 393/1/5 392/1/5
f 397/1/5 393/1/5 396/1/5
f 402/1/5 401/1/5 400/1/5
f 403/1/5 399/1/5 398/1/5
f 404/1/5 399/1/5 403/1/5
f 405/1/5 401/1/5 402/1/5
f 406/1/5 401/1/5 405/1/5
f 409/1/5 408/1/5 407/1/5
f 410/1/5 408/1/5 409/1/5
f 415/1/5 414/1/5 413/1/5
f 416/1/5 412/1/5 411/1/5
f 417/1/5 412/1/5 416/1/5
f 418/1/5 414/1/5 415/1/5
f 419/1/5 414/1/5 418/1/5
f 424/1/5 423/1/5 422/1/5
f 425/1/5 421/1/5 420/1/5
f 426/1/5 421/1/5 425/1/5
f 427/1/5 423/1/5 424/1/5
f 428/1/5 423/1/5 427/1/5
f 431/1/5 430/1/5 429/1/5
f 432/1/5 430/1/5 431/1/5
f 433/1/6 434/1/6 439/1/6
f 439/1/6 434/1/6 440/1/6
f 440/1/6 434/1/6 441/1/6
f 441/1/6 434/1/6 442/1/6
f 435/1/6 436/1/6 443/1/6
f 443/1/6 436/1/6 444/1/6
f 437/1/6 438/1/6 445/1/6
f 445/1/6 438/1/6 446/1/6
f 447/1/6 448/1/6 449/1/6
f 449/1/6 448/1/6 450/1/6
f 450/1/6 448/1/6 451/1/6
f 451/1/6 448/1/6 452/1/6
f 452/1/6 448/1/6 453/1/6
f 453/1/6 448/1/6 454/1/6
f 447/1/6 449/1/6 457/1/6
f 457/1/6 449/1/6 458/1/6
f 455/1/6 456/1/6 459/1/6
f 459/1/6 456/1/6 460/1/6
f 454/1/6 448/1/6 461/1/6
f 461/1/6 448/1/6 462/1/6
f 463/1/6 464/1/6 469/1/6
f 469/1/6 464/1/6 470/1/6
f 467/3/6 468/3/6 471/3/6
f 471/3/6 468/3/6 472/3/6
f 465/1/6 466/1/6 473/1/6
f 473/1/6 466/1/6 474/1/6
f 475/1/6 476/1/6 477/1/6
f 477/1/6 476/1/6 478/1/6
f 481/1/6 482/1/6 483/1/6
f 479/1/6 480/1/6 484/1/6
f 484/1/6 480/1/6 485/1/6
f 483/1/6 482/1/6 486/1/6
f 486/1/6 482/1/6 487/1/6
f 490/1/6 491/1/6 492/1/6
f 488/1/6 489/1/6 493/1/6
f 493/1/6 489/1/6 494/1/6
f 492/1/6 491/1/6 495/1/6
f 495/1/6 491/1/6 496/1/6
f 499/1/6 500/1/6 501/1/6
f 497/1/6 498/1/6 502/1/6
f 502/1/6 498/1/6 503/1/6
f 501/1/6 500/1/6 504/1/6
f 504/1/6 500/1/6 505/1/6
f 506/1/6 507/1/6 508/1/6
f 508/1/6 507/1/6 509/1/6
f 510/1/6 511/1/6 512/1/6
f 512/1/6 511/1/6 513/1/6
f 514/1/6 515/1/6 516/1/6
f 516/1/6 515/1/6 517/1/6
